<?xml version="1.0" standalone="no"?><!DOCTYPE svg PUBLIC "-//W3C//DTD SVG 1.1//EN" "http://www.w3.org/Graphics/SVG/1.1/DTD/svg11.dtd"><svg t="1585377230641" class="icon" viewBox="0 0 1024 1024" version="1.1" xmlns="http://www.w3.org/2000/svg" p-id="1812" xmlns:xlink="http://www.w3.org/1999/xlink" width="200" height="200"><defs><style type="text/css"></style></defs><path d="M511.889483 132.243907c-51.237965 0-100.960413 10.041704-147.784858 29.846772-45.211714 19.123546-85.809341 46.492894-120.665197 81.34875-34.856879 34.855856-62.226227 75.453483-81.34875 120.665197-19.805068 46.824445-29.846772 96.546893-29.846772 147.784858l0 379.865587 380.669906 0c51.130518 0 100.746542-10.020214 147.471726-29.783327 45.116547-19.081591 85.628216-46.393633 120.410394-81.175811s62.09422-75.293847 81.176834-120.410394c19.763113-46.725184 29.783327-96.341209 29.783327-147.471726l0-380.669906L511.889483 132.243907zM830.357721 512.913812c0 175.039595-142.405337 317.443909-317.444932 317.443909l-319.271534 0L193.641255 511.890506c0-175.482687 142.765541-318.248228 318.248228-318.248228l318.468239 0L830.357721 512.913812z" p-id="1813"></path><path d="M704.72335 378.798279c33.855062 0 61.398372-27.54331 61.398372-61.398372s-27.54331-61.398372-61.398372-61.398372-61.398372 27.54331-61.398372 61.398372S670.868287 378.798279 704.72335 378.798279z" p-id="1814"></path></svg>